<svg width="32" height="32" viewBox="0 0 32 32" fill="none" xmlns="http://www.w3.org/2000/svg">
  <rect width="32" height="32" rx="6" fill="#10b981"/>
  <path d="M8 11C8 10.4477 8.44772 10 9 10H23C23.5523 10 24 10.4477 24 11C24 11.5523 23.5523 12 23 12H9C8.44772 12 8 11.5523 8 11Z" fill="white"/>
  <path d="M8 16C8 15.4477 8.44772 15 9 15H19C19.5523 15 20 15.4477 20 16C20 16.5523 19.5523 17 19 17H9C8.44772 17 8 16.5523 8 16Z" fill="white"/>
  <path d="M8 21C8 20.4477 8.44772 20 9 20H15C15.5523 20 16 20.4477 16 21C16 21.5523 15.5523 22 15 22H9C8.44772 22 8 21.5523 8 21Z" fill="white"/>
</svg>
