<svg width="48" height="48" viewBox="0 0 48 48" fill="none" xmlns="http://www.w3.org/2000/svg">
  <rect width="48" height="48" rx="8" fill="#10b981"/>
  <path d="M12 17C12 15.8954 12.8954 15 14 15H34C35.1046 15 36 15.8954 36 17C36 18.1046 35.1046 19 34 19H14C12.8954 19 12 18.1046 12 17Z" fill="white"/>
  <path d="M12 24C12 22.8954 12.8954 22 14 22H30C31.1046 22 32 22.8954 32 24C32 25.1046 31.1046 26 30 26H14C12.8954 26 12 25.1046 12 24Z" fill="white"/>
  <path d="M12 31C12 29.8954 12.8954 29 14 29H24C25.1046 29 26 29.8954 26 31C26 32.1046 25.1046 33 24 33H14C12.8954 33 12 32.1046 12 31Z" fill="white"/>
</svg>
