<svg width="128" height="128" viewBox="0 0 128 128" fill="none" xmlns="http://www.w3.org/2000/svg">
  <rect width="128" height="128" rx="24" fill="#10b981"/>
  <path d="M32 44C32 40.6863 34.6863 38 38 38H90C93.3137 38 96 40.6863 96 44C96 47.3137 93.3137 50 90 50H38C34.6863 50 32 47.3137 32 44Z" fill="white"/>
  <path d="M32 64C32 60.6863 34.6863 58 38 58H80C83.3137 58 86 60.6863 86 64C86 67.3137 83.3137 70 80 70H38C34.6863 70 32 67.3137 32 64Z" fill="white"/>
  <path d="M32 84C32 80.6863 34.6863 78 38 78H64C67.3137 78 70 80.6863 70 84C70 87.3137 67.3137 90 64 90H38C34.6863 90 32 87.3137 32 84Z" fill="white"/>
</svg>
